<svg width="247" height="87" viewBox="0 0 247 87" fill="none" xmlns="http://www.w3.org/2000/svg">
<path d="M27.5 70.5H38.5H27.5ZM13.75 34.75C13.75 29.6446 15.7781 24.7483 19.3882 21.1382C22.9983 17.5281 27.8946 15.5 33 15.5C38.1054 15.5 43.0017 17.5281 46.6118 21.1382C50.2219 24.7483 52.25 29.6446 52.25 34.75C52.2518 37.8495 51.5022 40.9031 50.0653 43.6494C48.6285 46.3957 46.5473 48.7527 44 50.5185L42.5095 57.575C42.3122 58.8757 41.6552 60.0625 40.6577 60.9203C39.6602 61.778 38.3883 62.2498 37.0728 62.25H28.9273C27.6117 62.2498 26.3398 61.778 25.3423 60.9203C24.3448 60.0625 23.6878 58.8757 23.4905 57.575L22 50.5487C19.4519 48.7767 17.3706 46.4142 15.9339 43.663C14.4973 40.9118 13.748 37.8537 13.75 34.75V34.75Z" stroke="#3F97E9" stroke-width="5" stroke-linecap="round" stroke-linejoin="round"/>
<path d="M22 51.25H44" stroke="#3F97E9" stroke-width="5" stroke-linecap="round" stroke-linejoin="round"/>
<g filter="url(#filter0_i_2_70)">
<path d="M91.0938 68L80.0938 32.1562H79.8125C79.8542 33.0104 79.9167 34.3021 80 36.0312C80.1042 37.7396 80.1979 39.5625 80.2812 41.5C80.3646 43.4375 80.4062 45.1875 80.4062 46.75V68H71.75V22.3125H84.9375L95.75 57.25H95.9375L107.406 22.3125H120.594V68H111.562V46.375C111.562 44.9375 111.583 43.2812 111.625 41.4062C111.688 39.5312 111.76 37.75 111.844 36.0625C111.927 34.3542 111.99 33.0729 112.031 32.2188H111.75L99.9688 68H91.0938ZM132.125 68V22.3125H141.812V68H132.125Z" fill="black" fill-opacity="0.75"/>
<path d="M193.844 68H181.531L161.656 33.4375H161.375C161.458 34.875 161.531 36.3229 161.594 37.7812C161.656 39.2396 161.719 40.6979 161.781 42.1562C161.844 43.5938 161.906 45.0417 161.969 46.5V68H153.312V22.3125H165.531L185.375 56.5312H185.594C185.552 55.1146 185.5 53.7083 185.438 52.3125C185.375 50.9167 185.312 49.5208 185.25 48.125C185.208 46.7292 185.167 45.3333 185.125 43.9375V22.3125H193.844V68ZM243.281 44.7188C243.281 49.8646 242.292 54.1667 240.312 57.625C238.354 61.0625 235.51 63.6562 231.781 65.4062C228.052 67.1354 223.562 68 218.312 68H205.375V22.3125H219.719C224.51 22.3125 228.667 23.1667 232.188 24.875C235.708 26.5625 238.438 29.0729 240.375 32.4062C242.312 35.7188 243.281 39.8229 243.281 44.7188ZM233.219 44.9688C233.219 41.5938 232.719 38.8229 231.719 36.6562C230.74 34.4688 229.281 32.8542 227.344 31.8125C225.427 30.7708 223.052 30.25 220.219 30.25H215.062V60H219.219C223.948 60 227.458 58.7396 229.75 56.2188C232.062 53.6979 233.219 49.9479 233.219 44.9688Z" fill="black" fill-opacity="0.65"/>
</g>
<defs>
<filter id="filter0_i_2_70" x="71.75" y="22.3125" width="171.531" height="49.6875" filterUnits="userSpaceOnUse" color-interpolation-filters="sRGB">
<feFlood flood-opacity="0" result="BackgroundImageFix"/>
<feBlend mode="normal" in="SourceGraphic" in2="BackgroundImageFix" result="shape"/>
<feColorMatrix in="SourceAlpha" type="matrix" values="0 0 0 0 0 0 0 0 0 0 0 0 0 0 0 0 0 0 127 0" result="hardAlpha"/>
<feOffset dy="4"/>
<feGaussianBlur stdDeviation="2"/>
<feComposite in2="hardAlpha" operator="arithmetic" k2="-1" k3="1"/>
<feColorMatrix type="matrix" values="0 0 0 0 0 0 0 0 0 0 0 0 0 0 0 0 0 0 0.25 0"/>
<feBlend mode="normal" in2="shape" result="effect1_innerShadow_2_70"/>
</filter>
</defs>
</svg>
