<svg width="604" height="840" viewBox="0 0 604 840" fill="none" xmlns="http://www.w3.org/2000/svg">
<g style="mix-blend-mode:darken" filter="url(#filter0_i_5_114)">
<path d="M40.0966 682.606C29.046 730.638 15.1378 790.363 3.28675 839.7C-9.61251 893.401 22.7715 934.5 78 934.5H646.5C701.728 934.5 746.5 889.728 746.5 834.5V18.2463C746.5 8.16913 738.331 0 728.254 0C725.455 0 722.695 0.643628 720.185 1.88111L626.891 47.88C597.517 62.3633 577.096 90.313 572.226 122.7L560 204L513.38 364.746C503.537 398.685 476.513 424.909 442.294 433.727L246.449 484.199C230.401 488.335 215.633 496.394 203.472 507.651L69.6735 631.511C54.9023 645.185 44.6096 662.99 40.0966 682.606Z" fill="#3F97E9"/>
</g>
<defs>
<filter id="filter0_i_5_114" x="0.462402" y="0" width="746.038" height="936.5" filterUnits="userSpaceOnUse" color-interpolation-filters="sRGB">
<feFlood flood-opacity="0" result="BackgroundImageFix"/>
<feBlend mode="normal" in="SourceGraphic" in2="BackgroundImageFix" result="shape"/>
<feColorMatrix in="SourceAlpha" type="matrix" values="0 0 0 0 0 0 0 0 0 0 0 0 0 0 0 0 0 0 127 0" result="hardAlpha"/>
<feOffset dy="2"/>
<feGaussianBlur stdDeviation="1"/>
<feComposite in2="hardAlpha" operator="arithmetic" k2="-1" k3="1"/>
<feColorMatrix type="matrix" values="0 0 0 0 0 0 0 0 0 0 0 0 0 0 0 0 0 0 0.19 0"/>
<feBlend mode="normal" in2="shape" result="effect1_innerShadow_5_114"/>
</filter>
</defs>
</svg>
